<?xml version="1.0" encoding="UTF-8" standalone="no"?>
<svg
   xmlns:dc="http://purl.org/dc/elements/1.1/"
   xmlns:cc="http://creativecommons.org/ns#"
   xmlns:rdf="http://www.w3.org/1999/02/22-rdf-syntax-ns#"
   xmlns:svg="http://www.w3.org/2000/svg"
   xmlns="http://www.w3.org/2000/svg"
   xmlns:sodipodi="http://sodipodi.sourceforge.net/DTD/sodipodi-0.dtd"
   xmlns:inkscape="http://www.inkscape.org/namespaces/inkscape"
   class="shopee-svg-icon _1ayx1Y XLYSy4 icon-shopee-logo"
   viewBox="0 0 1000.0003 319.70123"
   width="1000.0003"
   height="319.70123"
   version="1.1"
   id="svg6"
   sodipodi:docname="svgexport-1.svg"
   inkscape:version="0.92.4 (5da689c313, 2019-01-14)">
  <metadata
     id="metadata12">
    <rdf:RDF>
      <cc:Work
         rdf:about="">
        <dc:format>image/svg+xml</dc:format>
        <dc:type
           rdf:resource="http://purl.org/dc/dcmitype/StillImage" />
        <dc:title></dc:title>
      </cc:Work>
    </rdf:RDF>
  </metadata>
  <defs
     id="defs10" />
  <sodipodi:namedview
     pagecolor="#ffffff"
     bordercolor="#666666"
     borderopacity="1"
     objecttolerance="10"
     gridtolerance="10"
     guidetolerance="10"
     inkscape:pageopacity="0"
     inkscape:pageshadow="2"
     inkscape:window-width="1920"
     inkscape:window-height="1001"
     id="namedview8"
     showgrid="false"
     fit-margin-top="0"
     fit-margin-left="0"
     fit-margin-right="0"
     fit-margin-bottom="0"
     inkscape:zoom="1"
     inkscape:cx="601.84657"
     inkscape:cy="30.298767"
     inkscape:window-x="-9"
     inkscape:window-y="-9"
     inkscape:window-maximized="1"
     inkscape:current-layer="svg6" />
  <g
     id="g4"
     transform="matrix(5.2631567,0,0,5.2631567,-5.2629262,-10.957342)"
     style="fill:#ee4d2d;fill-rule:evenodd">
    <path
       d="m 35.67174,44.953764 c -0.333349,2.751051 -2.000311,4.954341 -4.582384,6.057598 -1.437971,0.614592 -3.36871,0.946386 -4.896954,0.842163 -2.384027,-0.09111 -4.623787,-0.670894 -6.688335,-1.730742 -0.737553,-0.378855 -1.837052,-1.135276 -2.68131,-1.843776 -0.213839,-0.179005 -0.239235,-0.293758 -0.09774,-0.494467 0.0764,-0.115182 0.217254,-0.322983 0.528622,-0.779199 0.45158,-0.661654 0.507921,-0.744602 0.558713,-0.822178 0.14448,-0.221769 0.379233,-0.241109 0.610785,-0.05888 0.02433,0.01891 0.02433,0.01891 0.04268,0.03331 0.03799,0.02944 0.03799,0.02944 0.12762,0.09907 0.0907,0.0707 0.14448,0.112389 0.166248,0.12872 2.226529,1.743851 4.819699,2.749547 7.437625,2.850117 3.642304,-0.04964 6.261511,-1.687335 6.730804,-4.202004 0.516031,-2.767598 -1.656504,-5.158274 -5.907033,-6.490821 -1.329344,-0.416676 -4.689518,-1.761687 -5.309053,-2.12507 -2.909447,-1.707104 -4.269736,-3.943058 -4.076384,-6.704854 0.296216,-3.828306 3.850167,-6.683579 8.340785,-6.702705 2.008208,-0.0041 4.012147,0.413238 5.937338,1.224457 0.681638,0.28731 1.898727,0.949608 2.318936,1.263351 0.242009,0.177716 0.289813,0.384872 0.151095,0.60836 -0.07747,0.12958 -0.205515,0.335017 -0.475482,0.763298 l -0.003,0.0047 c -0.355331,0.564092 -0.366428,0.581714 -0.447952,0.713657 -0.140852,0.214463 -0.306459,0.234448 -0.56042,0.07328 -2.060067,-1.383907 -4.34379,-2.080157 -6.855437,-2.130442 -3.126914,0.06189 -5.470605,1.922856 -5.624689,4.45794 -0.04097,2.289677 1.676352,3.961324 5.385881,5.23585 7.529819,2.419687 10.411309,5.25648 9.869029,9.729248 M 26.372522,5.4266937 c 4.902289,0 8.898217,4.6522033 9.085166,10.4757833 H 17.287569 C 17.474518,10.078897 21.470446,5.4266937 26.372522,5.4266937 M 51.743379,16.997353 c 0,-0.604706 -0.487007,-1.094876 -1.087549,-1.094876 H 38.87847 C 38.58951,8.2132019 33.100978,2.0818955 26.372522,2.0818955 c -6.728244,0 -12.216776,6.1313064 -12.505736,13.8205815 l -11.7942195,2.15e-4 c -0.5913649,0.01075 -1.0674873,0.496831 -1.0674873,1.094661 0,0.02858 0.00107,0.05695 0.0032,0.08488 h -0.008323 l 1.6812616,37.061399 c 2.134e-4,0.103148 0.00405,0.207156 0.011738,0.311809 0.00171,0.02364 0.00363,0.04706 0.00555,0.07048 l 0.00363,0.07822 0.00405,0.0041 c 0.2554543,2.578923 2.1270784,4.656071 4.6720177,4.751913 l 0.00576,0.0056 H 44.796175 c 0.01771,2.15e-4 0.03543,4.3e-4 0.05314,4.3e-4 0.01771,0 0.03543,-2.15e-4 0.05314,-4.3e-4 h 0.0796 l 0.0017,-0.0015 c 2.589329,-0.0707 4.686743,-2.176859 4.908265,-4.787585 l 0.0013,-0.0013 0.0017,-0.03503 c 0.0021,-0.02751 0.0041,-0.0548 0.0058,-0.0823 0.0041,-0.06576 0.0068,-0.1313 0.0079,-0.196412 l 1.83449,-37.207738 h -0.0013 c 0.0011,-0.0187 0.0015,-0.03761 0.0015,-0.05652 m 124.72208,24.15454 c 0.72084,-2.35125 2.90042,-3.918678 5.44373,-3.918678 2.42769,0 4.73911,1.64869 5.5376,3.914199 l 0.0548,0.155697 h -11.08266 z m 13.50267,3.406368 c 0.0149,6.4e-4 0.0149,6.4e-4 0.0369,8.53e-4 0.022,-2.13e-4 0.022,-2.13e-4 0.0444,-8.53e-4 0.53055,-0.02432 0.9506,-0.476691 0.9506,-1.027179 0,-0.02666 -8.5e-4,-0.04969 -0.003,-0.08659 4.3e-4,-0.0068 4.3e-4,-0.02026 4.3e-4,-0.06356 0,-5.192627 -4.07075,-9.400732 -9.09145,-9.400732 -5.02049,0 -9.09124,4.208105 -9.09124,9.400732 0,0.387111 0.0224,0.773157 0.0678,1.156856 l 0.003,0.02048 0.0141,0.10131 c 0.25002,1.868373 1.04723,3.583181 2.3063,4.970811 -6.4e-4,-6.4e-4 6.4e-4,6.4e-4 0.007,0.0079 1.39603,1.536289 3.29146,2.583303 5.39361,2.974894 l 0.0275,0.0053 v -0.0028 l 0.13653,0.02282 c 0.0702,0.01194 0.14421,0.02367 0.2434,0.03903 2.76688,0.332724 5.22124,-0.06612 7.29949,-1.112706 0.51178,-0.257861 0.97193,-0.542383 1.37064,-0.842901 0.12821,-0.09683 0.24362,-0.190463 0.34346,-0.278123 0.0514,-0.04522 0.0924,-0.08318 0.11413,-0.105149 0.4689,-0.48309 0.49812,-0.654357 0.21525,-1.09543 -0.31146,-0.495673 -0.58623,-0.917977 -0.82175,-1.26755 -0.0823,-0.122425 -0.15402,-0.226722 -0.21439,-0.313315 -0.0333,-0.04756 -0.0333,-0.04756 -0.0544,-0.07764 -0.008,-0.01173 -0.008,-0.01173 -0.0139,-0.0192 l -0.003,-0.0038 c -0.2562,-0.318861 -0.43156,-0.348081 -0.71593,-0.09705 -0.0303,0.02687 -0.13162,0.105149 -0.14997,0.124558 -1.99932,1.775381 -4.72951,2.346557 -7.45585,1.776021 -0.50773,-0.136289 -0.9826,-0.309476 -1.41992,-0.518495 -1.70813,-0.856551 -2.91835,-2.382602 -3.26757,-4.149025 l -0.0275,-0.139488 z m -35.13617,-3.406368 c 0.72083,-2.35125 2.90039,-3.918678 5.44367,-3.918678 2.42766,0 4.73906,1.64869 5.53775,3.914199 l 0.0546,0.155697 h -11.08253 z m 13.50252,3.406368 c 0.0151,6.4e-4 0.0151,6.4e-4 0.0371,8.53e-4 0.0218,-2.13e-4 0.0218,-2.13e-4 0.0442,-8.53e-4 0.53055,-0.02432 0.95059,-0.476691 0.95059,-1.027179 0,-0.02666 -8.6e-4,-0.04969 -0.003,-0.08659 4.2e-4,-0.0068 4.2e-4,-0.02026 4.2e-4,-0.06356 0,-5.192627 -4.0707,-9.400732 -9.09134,-9.400732 -5.02022,0 -9.09134,4.208105 -9.09134,9.400732 0,0.387111 0.0228,0.773157 0.068,1.156856 l 0.003,0.02048 0.0141,0.10131 c 0.25002,1.868373 1.04722,3.583181 2.30627,4.970811 -6.4e-4,-6.4e-4 6.4e-4,6.4e-4 0.007,0.0079 1.39601,1.536289 3.29141,2.583303 5.39353,2.974894 l 0.0275,0.0053 v -0.0028 l 0.13653,0.02282 c 0.0702,0.01194 0.14421,0.02367 0.24362,0.03903 2.76685,0.332724 5.22117,-0.06612 7.29919,-1.112706 0.51177,-0.257861 0.97191,-0.542383 1.37062,-0.842901 0.12821,-0.09683 0.24362,-0.190463 0.34346,-0.278123 0.0514,-0.04522 0.0924,-0.08318 0.11413,-0.105149 0.46889,-0.48309 0.49811,-0.654357 0.21524,-1.09543 -0.31145,-0.495673 -0.58622,-0.917977 -0.82173,-1.26755 -0.0823,-0.122425 -0.15402,-0.226722 -0.21418,-0.313315 -0.0335,-0.04756 -0.0335,-0.04756 -0.0546,-0.07764 -0.008,-0.01173 -0.008,-0.01173 -0.0139,-0.0192 l -0.002,-0.0038 c -0.25641,-0.318861 -0.43177,-0.348081 -0.71613,-0.09705 -0.0303,0.02687 -0.13163,0.105149 -0.14997,0.124558 -1.99909,1.775381 -4.72945,2.346557 -7.45577,1.776021 -0.50772,-0.136289 -0.98258,-0.309476 -1.4199,-0.518495 -1.70811,-0.856551 -2.9181,-2.382602 -3.26731,-4.149025 l -0.0277,-0.139488 z m -30.01304,5.177529 c -3.3813,0 -6.14681,-2.680852 -6.23169,-6.04042 v -0.316217 c 0.084,-3.354187 2.85039,-6.035469 6.23169,-6.035469 3.44242,0 6.23321,2.77406 6.23321,6.196053 0,3.421994 -2.79079,6.196053 -6.23321,6.196053 m 0.002,-15.679132 c -2.21777,0 -4.33683,0.755349 -6.0399,2.140764 l -0.19352,0.157356 v -1.733922 c 0,-0.462379 -0.0994,-0.564198 -0.5674,-0.564198 h -2.17652 c -0.47409,0 -0.56761,0.09428 -0.56761,0.564198 v 27.640072 c 0,0.453984 0.10583,0.564197 0.56761,0.564197 h 2.17652 c 0.46351,0 0.5674,-0.107845 0.5674,-0.564197 v -11.52676 l 0.19352,0.157355 c 1.70329,1.385631 3.82235,2.140979 6.0399,2.140979 5.27141,0 9.54474,-4.247947 9.54474,-9.488029 0,-5.239867 -4.27333,-9.487815 -9.54474,-9.487815 m -22.41552,15.467371 c -3.44946,0 -6.24581,-2.749695 -6.24581,-6.142585 0,-3.392891 2.79656,-6.142799 6.24581,-6.142799 3.44882,0 6.24538,2.749908 6.24538,6.142799 0,3.392677 -2.79635,6.142585 -6.24538,6.142585 m 0.002,-15.543831 c -5.28187,0 -9.56302,4.21129 -9.56302,9.405941 0,5.194437 4.28115,9.40594 9.56302,9.40594 5.28166,0 9.56239,-4.211503 9.56239,-9.40594 0,-5.194651 -4.28052,-9.405941 -9.56239,-9.405941 M 94.592296,34.18911 c -1.928131,0 -3.79389,0.619899 -5.341772,1.765605 l -0.188189,0.13931 V 23.257417 c 0,-0.425468 -0.139582,-0.564348 -0.564997,-0.564348 h -2.278269 c -0.460042,0 -0.565213,0.110028 -0.565213,0.564348 v 29.283415 c 0,0.443339 0.113559,0.564779 0.565213,0.564779 h 2.278269 c 0.422619,0 0.564997,-0.145771 0.564997,-0.564779 v -9.56484 c 0.02366,-3.011002 2.493128,-5.441292 5.529961,-5.441292 3.044575,0 5.516844,2.442132 5.529744,5.463039 v 9.543093 c 0,0.484465 0.0806,0.564563 0.56521,0.564563 h 2.27268 c 0.48176,0 0.56521,-0.08247 0.56521,-0.564563 v -9.571084 c -0.0181,-4.828068 -4.044017,-8.780654 -8.932844,-8.780654 m -31.745961,13.604712 -0.0053,0.0082 c -0.324866,0.492119 -0.460922,0.699135 -0.536959,0.817981 -0.256091,0.38121 -0.224267,0.551113 0.166812,0.881695 0.91266,0.735818 2.085897,1.508535 2.877453,1.895537 2.202302,1.076912 4.581027,1.646045 7.101788,1.697531 1.628392,0.08216 3.673494,-0.305054 5.196374,-0.984238 2.756989,-1.229868 4.513106,-3.626962 4.820886,-6.57946 0.498513,-4.784107 -2.614313,-7.774791 -10.632179,-10.184971 l -0.0021,-6.44e-4 c -3.735648,-1.204768 -5.490484,-2.806407 -5.491125,-5.042608 0.109998,-2.471535 2.40158,-4.317946 5.49326,-4.433145 2.490432,0.0062 4.692307,0.667599 6.855736,2.059862 0.456223,0.276736 0.666607,0.22568 0.973319,-0.172263 0.03524,-0.05878 0.133279,-0.201224 0.543367,-0.790093 l 0.0013,-0.0019 c 0.382963,-0.55004 0.50898,-0.733673 0.540377,-0.787948 0.258441,-0.486326 0.22149,-0.67382 -0.244985,-1.004617 -0.459427,-0.32908 -1.753554,-1.002472 -2.493636,-1.297872 -2.058343,-0.821199 -4.186317,-1.22 -6.304252,-1.178811 -4.819818,0.104688 -8.578747,3.239317 -8.826509,7.351534 -0.1572,2.970303 1.350301,5.358817 4.500078,7.124567 0.882971,0.466161 4.111562,1.68659 5.618423,2.127866 4.284781,1.254753 6.518694,3.563035 6.057131,6.286421 -0.419272,2.474323 -3.011799,4.119939 -6.649837,4.232565 -2.638234,-0.05492 -5.296332,-1.02178 -7.60436,-2.756209 -0.01153,-0.0084 -0.07006,-0.05192 -0.177919,-0.132361 -0.151647,-0.113055 -0.151647,-0.113055 -0.174287,-0.130002 -0.470534,-0.32479 -0.747343,-0.29776 -1.034619,0.130216 -0.0346,0.05299 -0.391933,0.596378 -0.568143,0.863246"
       id="path2"
       inkscape:connector-curvature="0"
       style="fill:#ee4d2d" />
  </g>
</svg>
