<svg xmlns="http://www.w3.org/2000/svg" viewBox="0 0 176.05 197.39"><title>Shopee logo</title><path d="M576.57,610.69a17.86,17.86,0,0,0,17-16.5l.06-1.09L600,464.9h0q0-.1,0-.19a3.77,3.77,0,0,0-3.77-3.77H555.39c-1-26.5-20-47.62-43.39-47.62s-42.39,21.13-43.39,47.62H427.68a3.77,3.77,0,0,0-3.7,3.77q0,.15,0,.29h0l5.8,127.71.09,1.6c.89,8.89,7.38,16,16.21,16.37h0l129.83,0ZM512,424.83c17,0,30.87,16,31.52,36.1h-63C481.12,440.86,495,424.83,512,424.83Z" transform="translate(-423.98 -413.31)" style="fill:#ee4e2c"/><path d="M544.43,561.15a25.76,25.76,0,0,1-16,21,40.35,40.35,0,0,1-17.07,2.91,55.34,55.34,0,0,1-23.26-6,58.07,58.07,0,0,1-9.33-6.37c-.66-.55-1-1-.36-1.93s3.35-4.87,3.77-5.51a1.49,1.49,0,0,1,2.36-.24l1.16.89a45.09,45.09,0,0,0,25.73,9.79c12.49-.17,21.56-5.73,23.17-14.35,1.78-9.49-5.79-17.64-20.38-22.18-4.64-1.44-16.3-6.08-18.45-7.34Q480.5,523,481.52,508.6c1-13.25,13.4-23.18,29.1-23.25a53.21,53.21,0,0,1,20.67,4.23,54.56,54.56,0,0,1,8.08,4.37,1.58,1.58,0,0,1,.56,2.32c-.62,1-2.47,3.9-3.21,5.1-.54.82-1.21.91-2.17.31a43.51,43.51,0,0,0-23.72-7.32c-10.72.21-18.81,6.54-19.34,15.22-.14,7.84,5.86,13.53,18.58,17.87C536.36,535.84,546.31,545.7,544.43,561.15Z" transform="translate(-423.98 -413.31)" style="fill:#fff"/></svg>